<svg width="180" height="180" viewBox="0 0 180 180" fill="none" xmlns="http://www.w3.org/2000/svg">
<rect width="180" height="180" fill="#1E1E1E"/>
<path d="M66.2393 72.8242C66.2393 72.8242 66.232 71.6359 66.2172 69.2594C66.2172 66.8828 66.0916 64.5339 65.8406 62.2126C65.6043 59.8913 65.3827 57.7358 65.176 55.7461C64.984 53.7748 64.4449 51.6654 63.5588 49.4178C62.6579 47.1702 61.6166 45.2542 60.4351 43.6698C59.2536 42.067 57.8062 41.2196 56.093 41.1275C54.3798 41.0169 52.6814 41.109 50.9977 41.4038C49.3141 41.6802 47.7338 42.5092 46.2569 43.8909C44.7948 45.2726 42.9191 47.2715 40.6299 49.8876C38.3407 52.4852 36.6349 54.6315 35.5124 56.3264C34.3752 58.0213 33.1642 59.8636 31.8793 61.8533C30.5944 63.8246 29.2061 66.7815 27.7144 70.724C26.208 74.6297 25.1446 77.5405 24.5243 79.4565C23.8892 81.3909 23.2616 83.878 22.6413 86.9178C22.021 89.976 21.6665 92.6473 21.5779 94.9318C21.4893 97.2162 21.4745 99.4362 21.5336 101.592C21.5779 103.729 21.637 105.857 21.7108 107.975C21.7847 110.094 22.2942 112.305 23.2394 114.608C24.1846 116.91 25.4326 119.167 26.9833 121.378C28.5489 123.589 30.0996 125.615 31.6356 127.458C33.1716 129.318 34.7666 130.912 36.4207 132.238C38.0749 133.565 39.7881 134.652 41.5603 135.499C43.3179 136.347 45.4151 137.148 47.8519 137.903C50.3036 138.659 52.386 138.751 54.0992 138.18C55.8124 137.627 57.6659 137.351 59.6597 137.351C61.6683 137.332 64.2012 136.245 67.2584 134.09C70.3156 131.916 72.2799 130.746 73.1512 130.58C74.0226 130.396 74.894 130.396 75.7653 130.58C76.6219 130.764 77.4416 131.114 78.2244 131.63C79.0071 132.146 79.7013 132.809 80.3068 133.62C80.9123 134.412 81.3997 135.306 81.7689 136.301C82.1382 137.314 82.3671 138.364 82.4557 139.451C82.5443 140.556 82.4926 141.643 82.3006 142.712C82.1086 143.78 81.7837 144.784 81.3259 145.724C80.868 146.663 80.3068 147.493 79.6422 148.211C78.9628 148.93 78.2096 149.491 77.3825 149.897C76.5702 150.302 75.721 150.532 74.8349 150.588C73.9488 150.643 73.0848 150.514 72.2429 150.201C71.3863 149.906 70.5962 149.455 69.8725 148.847C69.1488 148.22 68.5211 147.465 67.9895 146.581C67.4578 145.715 67.0516 144.757 66.771 143.707C66.4904 142.656 66.3501 141.579 66.3501 140.473C66.3501 139.386 66.4904 138.318 66.771 137.268C67.0664 136.218 67.4799 135.26 68.0116 134.394C68.5433 133.528 69.1784 132.782 69.9168 132.155C70.6405 131.547 71.4306 131.096 72.2872 130.801C73.1438 130.507 74.0078 130.396 74.8792 130.47C75.7653 130.525 76.6146 130.755 77.4269 131.161C78.2539 131.584 78.9997 132.146 79.6644 132.846C80.3437 133.565 80.905 134.403 81.348 135.361C81.8059 136.301 82.1308 137.305 82.3228 138.373C82.5 139.46 82.5443 140.547 82.4557 141.634C82.3523 142.721 82.116 143.771 81.7468 144.784C81.3776 145.779 80.8828 146.673 80.2625 147.465C79.657 148.257 78.9628 148.911 78.1801 149.427C77.3973 149.943 77.0059 150.201 77.0059 150.201C77.0059 150.201 75.4183 151.177 72.2429 153.13C69.0676 155.083 66.1876 156.308 63.6031 156.805C61.0185 157.303 58.8031 157.533 56.957 157.496C55.1257 157.459 53.1835 157.404 51.1307 157.33C49.0778 157.257 46.9658 156.944 44.7948 156.391C42.6237 155.838 40.6077 155.193 38.7468 154.456C36.8712 153.738 34.7814 152.605 32.4774 151.057C30.1734 149.528 28.1206 147.935 26.3187 146.277C24.5169 144.619 22.7594 142.749 21.0462 140.667C19.3182 138.603 17.6124 136.402 15.9287 134.062C14.2303 131.722 12.9233 129.521 12.0076 127.458C11.0919 125.413 10.191 123.239 9.30486 120.936C8.40395 118.633 7.86488 116.422 7.68765 114.304C7.51042 112.203 7.45873 110.066 7.53258 107.892C7.60642 105.718 7.70981 103.406 7.84273 100.956C7.97565 98.5058 8.20456 95.6963 8.52948 92.5276C8.8544 89.3404 9.46731 85.8585 10.3682 82.0817C11.2691 78.305 12.0593 75.3481 12.7386 73.2111C13.418 71.1109 14.1565 68.8909 14.954 66.5512C15.7515 64.2115 16.6598 61.6875 17.6789 58.9793C18.6979 56.2712 19.8204 53.8025 21.0462 51.5733C22.2868 49.3257 23.5052 47.1978 24.7015 45.1897C25.8978 43.1816 27.264 41.0261 28.7999 38.7233C30.3507 36.4388 31.7685 34.6149 33.0534 33.2516C34.3383 31.8883 35.638 30.5619 36.9524 29.2723C38.2816 27.9827 39.6478 26.8128 41.0508 25.7627C42.4686 24.7126 44.6766 23.8467 47.6747 23.1651C50.6728 22.465 53.3755 22.3176 55.7829 22.7229C58.205 23.1282 60.3022 23.6993 62.0745 24.4363C63.8468 25.1732 65.5009 26.1864 67.0369 27.476C68.5581 28.7472 69.902 30.2303 71.0688 31.9252C72.2355 33.6017 73.2325 35.5085 74.0595 37.6455C74.9014 39.7642 75.5955 41.9933 76.1419 44.3331C76.6884 46.6912 77.0798 49.2704 77.3161 52.0707C77.5524 54.871 77.7001 57.8463 77.7592 60.9966C77.8182 64.1286 77.8478 66.8828 77.8478 69.2594C77.833 71.6359 77.8035 73.1098 77.7592 73.6809C77.7001 74.252 77.5893 74.8139 77.4269 75.3666C77.2496 75.9008 77.0281 76.4075 76.7622 76.8865C76.4964 77.3655 76.1936 77.7984 75.854 78.1853C75.4995 78.5722 75.1155 78.9038 74.702 79.1801C74.2884 79.438 73.8601 79.6407 73.4171 79.7881C72.9592 79.917 72.494 79.9815 72.0214 79.9815C71.5636 79.9815 71.1057 79.917 70.6479 79.7881C70.2048 79.6407 69.7765 79.438 69.363 79.1801C68.9494 78.9038 68.5655 78.5722 68.211 78.1853C67.8565 77.7984 67.5538 77.3655 67.3027 76.8865C67.0369 76.4075 66.8153 75.9008 66.6381 75.3666C66.4756 74.8139 66.3649 74.252 66.3058 73.6809C66.2615 73.1098 66.2393 72.8242 66.2393 72.8242Z" fill="white"/>
<path d="M102.358 38.1667C102.358 38.1667 101.988 39.0929 101.248 40.9454C100.509 42.8152 100.053 45.014 99.8814 47.5417C99.6923 50.0868 99.9072 52.8049 100.526 55.6962C101.128 58.5875 101.73 61.0287 102.332 63.0197C102.934 65.0107 103.613 67.1662 104.369 69.4862C105.126 71.8061 105.908 74.3252 106.717 77.0433C107.525 79.7442 108.341 82.497 109.167 85.3017C109.992 88.1064 110.809 91.0583 111.617 94.1574C112.442 97.2564 113.276 100.26 114.119 103.169C114.962 106.095 115.804 109.133 116.647 112.284C117.489 115.418 118.28 118.153 119.02 120.491C119.742 122.845 120.507 124.923 121.315 126.723C122.141 128.507 123.207 130.697 124.513 133.294C125.803 135.891 126.921 138.185 127.867 140.176C128.795 142.149 128.64 142.262 127.402 140.513C126.147 138.765 125.966 136.99 126.861 135.19C127.755 133.372 128.675 130.749 129.62 127.321C130.566 123.875 131.486 120.88 132.38 118.335C133.257 115.79 134.177 113.202 135.14 110.57C136.103 107.956 137.083 105.35 138.08 102.753C139.078 100.174 139.92 97.5594 140.608 94.9105C141.296 92.2789 141.906 89.881 142.439 87.7169C142.972 85.5701 143.48 83.302 143.961 80.9128C144.46 78.5409 144.941 76.2729 145.406 74.1088C145.853 71.9446 146.3 69.8757 146.747 67.902C147.177 65.9456 147.796 63.9546 148.604 61.929C149.429 59.9033 150.108 57.5401 150.641 54.8392C151.175 52.1211 151.854 49.3423 152.679 46.5029C153.487 43.6636 154.424 39.9326 155.49 35.31C156.557 30.6528 157.262 27.9346 157.605 27.1555C157.949 26.3591 158.405 25.6493 158.972 25.026C159.557 24.4027 160.219 23.8833 160.959 23.4678C161.715 23.0523 162.506 22.7666 163.331 22.6108C164.174 22.4723 165.017 22.4636 165.859 22.5848C166.702 22.706 167.501 22.9657 168.258 23.3639C169.014 23.7448 169.694 24.2469 170.295 24.8702C170.88 25.4761 171.362 26.1687 171.74 26.9477C172.101 27.7268 172.333 28.5406 172.436 29.3889C172.539 30.2372 172.505 31.0769 172.333 31.908C172.161 32.7563 171.86 33.5527 171.43 34.2972C171 35.0243 170.467 35.6736 169.831 36.2449C169.195 36.7816 168.481 37.2144 167.69 37.5434C166.899 37.8723 166.083 38.0714 165.24 38.1407C164.398 38.1926 163.564 38.1147 162.738 37.907C161.913 37.6819 161.148 37.3356 160.443 36.8682C159.72 36.418 159.101 35.8554 158.586 35.1801C158.053 34.5049 157.648 33.7605 157.373 32.9468C157.081 32.133 156.935 31.302 156.935 30.4537C156.918 29.588 157.038 28.7483 157.296 27.9346C157.554 27.1209 157.941 26.3678 158.457 25.6752C158.955 24.9827 159.557 24.3941 160.262 23.9093C160.95 23.4245 161.707 23.0609 162.532 22.8186C163.34 22.5762 164.174 22.4723 165.034 22.5069C165.876 22.5416 166.693 22.706 167.484 23.0003C168.292 23.312 169.023 23.7448 169.676 24.2988C170.33 24.8355 170.88 25.4675 171.327 26.1946C171.774 26.9218 172.092 27.7095 172.282 28.5579C172.488 29.3889 172.548 30.2286 172.462 31.0769C172.376 31.9253 172.333 32.3495 172.333 32.3495C172.333 32.3495 171.74 34.4703 170.553 38.712C169.35 42.9884 168.301 45.9922 167.407 47.7235C166.513 49.4722 165.722 51.593 165.034 54.0861C164.346 56.5965 163.417 59.583 162.248 63.0457C161.079 66.5256 160.245 69.1918 159.746 71.0443C159.248 72.9142 158.749 74.8619 158.25 76.8875C157.769 78.9132 157.279 81.2504 156.78 83.8993C156.264 86.5483 155.731 88.8596 155.181 90.8333C154.631 92.807 154.055 95.4039 153.453 98.6242C152.851 101.862 152.155 104.744 151.364 107.272C150.573 109.8 149.807 112.397 149.068 115.063C148.329 117.747 147.649 120.188 147.03 122.386C146.411 124.603 145.844 126.923 145.328 129.346C144.812 131.788 143.884 134.687 142.543 138.046C141.201 141.405 140.195 144.002 139.525 145.837C138.871 147.672 137.994 149.464 136.894 151.213C135.811 152.979 134.478 154.45 132.896 155.628C131.314 156.822 129.603 157.489 127.763 157.627C125.941 157.766 123.8 156.597 121.341 154.121C118.865 151.646 117.111 149.066 116.079 146.382C115.048 143.682 114.042 140.92 113.062 138.098C112.081 135.276 111.187 132.748 110.379 130.515C109.588 128.282 108.892 125.996 108.29 123.659C107.705 121.339 106.906 118.664 105.891 115.634C104.894 112.605 103.896 109.627 102.899 106.701C101.902 103.792 100.887 100.866 99.8556 97.923C98.8411 94.9798 97.8352 92.1404 96.8379 89.4049C95.875 86.6868 94.9206 84.0205 93.9749 81.4063C93.012 78.8093 92.0834 76.2816 91.1893 73.8231C90.2952 71.3646 89.4698 68.8888 88.7132 66.3958C87.9394 63.9027 87.3806 61.6346 87.0367 59.5917C86.6928 57.5487 86.4434 55.4971 86.2887 53.4369C86.1339 51.3766 86.4434 48.3901 87.2172 44.4773C88.0082 40.5819 88.8336 37.7252 89.6933 35.9073C90.5531 34.0894 91.1119 32.9641 91.3698 32.5312C91.6278 32.0984 91.9287 31.7002 92.2726 31.3366C92.6165 30.9731 93.0034 30.6614 93.4333 30.4017C93.8631 30.142 94.3102 29.9343 94.7745 29.7784C95.2559 29.6226 95.746 29.5274 96.2447 29.4928C96.7261 29.4582 97.2076 29.4755 97.6891 29.5447C98.1877 29.6313 98.6692 29.7784 99.1335 29.9862C99.5805 30.194 100.002 30.445 100.397 30.7393C100.793 31.051 101.154 31.4059 101.481 31.8041C101.79 32.185 102.048 32.6091 102.254 33.0766C102.461 33.5267 102.615 33.9942 102.719 34.479C102.805 34.981 102.839 35.4831 102.822 35.9852C102.805 36.4873 102.719 36.9721 102.564 37.4395C102.426 37.9243 102.358 38.1667 102.358 38.1667Z" fill="white"/>
</svg>
