<svg width="69" height="48" viewBox="0 0 69 48" fill="none" xmlns="http://www.w3.org/2000/svg">
<g clip-path="url(#clip0_1_54)">
<path fill-rule="evenodd" clip-rule="evenodd" d="M34.4001 4.4992C29.6641 4.4992 29.1905 5.0016 26.7393 5.0016C24.6977 5.0016 18.5665 0 15.5041 0C12.4385 0 8.86411 1.8016 8.86411 7.0016V13.0016C8.87051 14.576 9.44011 19.4016 11.6801 18.112C9.03371 21.2416 8.76811 24.8928 8.80331 28.4256C8.08971 28.6304 7.36331 28.864 6.65611 29.104C4.46731 29.8528 2.14411 30.8064 1.09771 31.4848C0.563037 31.8302 0.187476 32.3739 0.0536505 32.9962C-0.0801754 33.6185 0.0386956 34.2685 0.384114 34.8032C0.729531 35.3379 1.2732 35.7134 1.89552 35.8473C2.51784 35.9811 3.16784 35.8622 3.70251 35.5168C4.20171 35.1936 6.00971 34.3968 8.20811 33.6448L8.93771 33.4048C9.08491 34.7904 9.45291 36.0608 10.0001 37.2128L9.92331 37.2544C8.61131 37.9456 7.39531 38.7424 6.62091 39.248L6.25931 39.4848C5.72464 39.8302 5.34908 40.3739 5.21525 40.9962C5.08142 41.6185 5.2003 42.2685 5.54571 42.8032C5.89113 43.3379 6.4348 43.7134 7.05712 43.8473C7.67944 43.9811 8.32944 43.8622 8.86411 43.5168L9.28331 43.2416C10.0673 42.7296 11.0721 42.0736 12.1665 41.4976C12.4225 41.36 12.6689 41.2384 12.9057 41.1264C18.4417 46.32 28.3841 48 34.4001 48C40.4161 48 50.3585 46.32 55.8945 41.1264C56.1313 41.2384 56.3745 41.36 56.6337 41.4976C57.7281 42.0736 58.7329 42.7296 59.5169 43.2416L59.9361 43.5168C60.4708 43.8622 61.1208 43.9811 61.7431 43.8473C62.3654 43.7134 62.9091 43.3379 63.2545 42.8032C63.5999 42.2685 63.7188 41.6185 63.585 40.9962C63.4512 40.3739 63.0756 39.8302 62.5409 39.4848L62.1793 39.248C61.1099 38.5328 60.0079 37.8675 58.8769 37.2544L58.8001 37.2128C59.3473 36.0608 59.7153 34.7904 59.8625 33.4048L60.5921 33.6448C62.7905 34.3968 64.5985 35.1936 65.1009 35.5168C65.6353 35.8429 66.276 35.9472 66.8863 35.8075C67.4965 35.6678 68.0281 35.2952 68.3675 34.7692C68.7069 34.2432 68.8274 33.6053 68.7031 32.9917C68.5789 32.3781 68.2198 31.8374 67.7025 31.4848C66.6561 30.8064 64.3329 29.8528 62.1473 29.104C61.4401 28.864 60.7105 28.6304 59.9969 28.4256C60.0353 24.8928 59.7665 21.2416 57.1169 18.112C59.3569 19.4016 59.9329 14.576 59.9361 12.9984V7.0016C59.9361 1.8016 56.3617 0 53.2961 0C50.2337 0 44.1057 5.0016 42.0641 5.0016C39.6097 5.0016 39.1393 4.4992 34.4001 4.4992ZM32.2369 33.92C32.8865 33.6992 33.6513 33.6 34.4001 33.6C35.1489 33.6 35.9137 33.6992 36.5633 33.92C36.8833 34.0288 37.2673 34.2016 37.6129 34.4768C37.9553 34.752 38.4001 35.2672 38.4001 36C38.4001 36.7328 37.9553 37.248 37.6129 37.5232C37.2705 37.7984 36.8801 37.9712 36.5633 38.08C35.9137 38.3008 35.1489 38.4 34.4001 38.4C33.6513 38.4 32.8865 38.3008 32.2369 38.08C31.8575 37.9565 31.5023 37.7681 31.1873 37.5232C30.8449 37.248 30.4001 36.7328 30.4001 36C30.4001 35.2672 30.8449 34.752 31.1873 34.4768C31.5329 34.2016 31.9201 34.0288 32.2369 33.92ZM41.3441 24C41.7825 23.2704 42.6433 22.4 43.9361 22.4C45.2289 22.4 46.0929 23.2704 46.5281 24C46.9825 24.7648 47.2001 25.6864 47.2001 26.6016C47.2001 27.5168 46.9825 28.4352 46.5281 29.1968C46.0929 29.9296 45.2289 30.8 43.9361 30.8C42.6433 30.8 41.7825 29.9296 41.3441 29.2C40.8897 28.4352 40.6721 27.5136 40.6721 26.5984C40.6721 25.6832 40.8897 24.7648 41.3441 24.0032V24ZM22.2721 24C22.7105 23.2704 23.5713 22.4 24.8641 22.4C26.1569 22.4 27.0209 23.2704 27.4561 24C27.9105 24.7648 28.1281 25.6864 28.1281 26.6016C28.1281 27.5168 27.9105 28.4352 27.4561 29.1968C27.0209 29.9296 26.1569 30.8 24.8641 30.8C23.5713 30.8 22.7105 29.9296 22.2721 29.2C21.8177 28.4352 21.6001 27.5136 21.6001 26.5984C21.6001 25.6832 21.8177 24.7648 22.2721 24.0032V24Z" fill="black"/>
</g>
<defs>
<clipPath id="clip0_1_54">
<rect width="69" height="48" fill="white"/>
</clipPath>
</defs>
</svg>
