<svg width="49" height="48" viewBox="0 0 49 48" fill="none" xmlns="http://www.w3.org/2000/svg">
<path d="M45.7251 26.7812C45.6305 26.7495 45.5285 26.7479 45.4329 26.7764C45.3374 26.805 45.253 26.8624 45.1913 26.9407C35.8141 38.8519 21.4477 40.0585 17.7631 40.1668V39.1386C17.7626 38.7561 17.6105 38.3893 17.34 38.1188C17.0694 37.8484 16.7027 37.6962 16.3201 37.6958H15.8401C15.5658 37.6963 15.2974 37.7748 15.0661 37.9224C14.8349 38.0699 14.6504 38.2802 14.5344 38.5287C14.3483 37.9938 14.1903 37.4496 14.061 36.8982C14.0659 36.8817 14.07 36.865 14.0732 36.848C14.0961 36.6815 14.1215 36.5167 14.1494 36.3539C14.7493 36.5544 16.1517 36.9162 18.4567 36.9162C19.6029 36.9113 20.7476 36.8324 21.8836 36.68C21.8468 37.2131 21.8271 37.7857 21.8349 38.3959C21.8365 38.5231 21.8881 38.6445 21.9786 38.7339C22.0691 38.8233 22.1912 38.8735 22.3184 38.8735H22.3246C22.3882 38.8727 22.4509 38.8594 22.5093 38.8344C22.5677 38.8093 22.6205 38.773 22.6649 38.7276C22.7092 38.6821 22.7442 38.6283 22.7678 38.5693C22.7913 38.5103 22.803 38.4473 22.8022 38.3838C22.775 36.8245 22.9434 35.2681 23.3036 33.7508C23.329 33.6453 23.3434 33.5376 23.3468 33.4292C23.826 33.426 24.2893 33.2567 24.6576 32.95L25.1181 33.5538C25.1769 33.6311 25.2187 33.7199 25.2409 33.8144C25.2631 33.909 25.2651 34.0071 25.2469 34.1024C25.1375 34.6582 24.9072 35.1831 24.5722 35.6399C24.1418 36.2433 23.9663 36.9918 24.0836 37.7236L24.1198 37.9559C24.1296 38.0186 24.1517 38.0788 24.1848 38.1331C24.2178 38.1873 24.2612 38.2345 24.3125 38.272C24.3638 38.3094 24.422 38.3364 24.4838 38.3514C24.5455 38.3664 24.6096 38.3691 24.6723 38.3593C24.7351 38.3495 24.7953 38.3274 24.8496 38.2944C24.9038 38.2613 24.951 38.2179 24.9885 38.1666C25.0259 38.1153 25.0529 38.0571 25.0679 37.9954C25.0829 37.9336 25.0855 37.8695 25.0758 37.8068L25.0396 37.5745C24.961 37.0959 25.074 36.6056 25.354 36.2096C25.773 35.6375 26.0609 34.9801 26.1971 34.2841C26.2409 34.0551 26.236 33.8195 26.1826 33.5925C26.1292 33.3656 26.0286 33.1524 25.8874 32.967L25.693 32.7128L25.8257 32.673C25.915 32.6461 26.0087 32.6376 26.1014 32.6479C26.1941 32.6582 26.2837 32.6872 26.3649 32.7331C26.446 32.779 26.517 32.8409 26.5736 32.915C26.6302 32.9891 26.6712 33.0739 26.6941 33.1643C27.0171 34.431 27.2685 35.7149 27.4472 37.0098C27.4546 37.0736 27.4745 37.1352 27.5059 37.1912C27.5374 37.2471 27.5796 37.2963 27.6302 37.3358C27.6807 37.3753 27.7387 37.4043 27.8006 37.4212C27.8625 37.4381 27.9271 37.4425 27.9908 37.4341C28.0544 37.4258 28.1157 37.4049 28.1712 37.3726C28.2266 37.3403 28.2751 37.2973 28.3138 37.2461C28.3525 37.1949 28.3806 37.1366 28.3966 37.0744C28.4125 37.0122 28.4159 36.9475 28.4065 36.884C28.2229 35.5519 27.9644 34.2311 27.6323 32.928C27.5258 32.5044 27.256 32.1402 26.8819 31.9147C26.5079 31.6893 26.0598 31.6209 25.6355 31.7246C25.7108 31.5891 25.778 31.4543 25.837 31.3201C27.2564 30.422 28.7606 29.6654 30.3279 29.0613L30.7996 30.4993C29.9716 30.9102 29.1526 31.3388 28.3431 31.7849C28.2859 31.8147 28.2352 31.8556 28.194 31.9053C28.1528 31.9549 28.122 32.0123 28.1033 32.0741C28.0846 32.1359 28.0785 32.2007 28.0853 32.2649C28.092 32.3291 28.1116 32.3913 28.1427 32.4478C28.1739 32.5043 28.2161 32.554 28.2667 32.5939C28.3174 32.6339 28.3755 32.6633 28.4377 32.6805C28.4999 32.6977 28.5649 32.7022 28.6289 32.6939C28.6929 32.6855 28.7546 32.6645 28.8103 32.632C30.3603 31.7774 31.5868 31.1912 31.5991 31.1855C31.7052 31.1348 31.7893 31.0473 31.8356 30.9392C31.8819 30.831 31.8872 30.7098 31.8505 30.598L31.089 28.2759C31.0688 28.2138 31.0361 28.1564 30.9931 28.1073C30.95 28.0581 30.8975 28.0181 30.8386 27.9898C30.7796 27.9615 30.7156 27.9455 30.6503 27.9426C30.585 27.9397 30.5198 27.9501 30.4587 27.9731C29.0011 28.514 27.59 29.1726 26.2392 29.9423C26.3092 29.4106 26.2311 28.8699 26.0133 28.3799C25.4442 27.0827 24.8667 25.1763 24.4008 23.459C25.3116 22.3525 26.304 21.3158 27.3697 20.3576C27.6143 20.136 27.7735 19.8357 27.8194 19.5088C27.8653 19.182 27.7951 18.8494 27.621 18.5689C27.1945 17.88 26.7029 17.2336 26.1528 16.6386C26.5422 16.516 26.8672 16.2439 27.0563 15.8821C28.7437 12.6573 28.7153 8.30978 28.7133 8.12625V8.12498C28.7116 7.96969 28.6067 3.05788 23.8772 2.82705C23.5718 2.8039 19.8254 2.60117 18.4743 6.19242C17.9511 5.9383 17.2461 5.58536 16.5484 5.20757C16.5814 4.68951 16.4963 4.17072 16.2995 3.69035C16.1027 3.20998 15.7993 2.78059 15.4124 2.43458C14.0764 1.20197 12.0289 1.19223 10.7509 2.41242C9.83646 3.28545 9.27443 4.64117 9.08032 6.44216C8.92408 7.88933 8.44064 9.28198 7.66657 10.5147C5.66907 13.6789 5.70592 16.5853 6.0885 18.4652C6.5037 20.506 7.39114 21.7911 7.42869 21.8448C7.49036 21.9329 7.57963 21.9979 7.68239 22.0297C7.78516 22.0614 7.89556 22.0579 7.99615 22.0199C8.09675 21.9819 8.1818 21.9114 8.23788 21.8196C8.29396 21.7279 8.31787 21.62 8.30582 21.5132C7.98337 18.6599 9.87937 16.8099 9.89759 16.7925L9.91269 16.7775C12.9861 13.6045 14.6346 10.6646 15.4765 8.75745C15.5263 8.64041 15.528 8.50844 15.4812 8.39013C15.4345 8.27183 15.343 8.17669 15.2266 8.12533C15.1103 8.07397 14.9783 8.07052 14.8594 8.11571C14.7405 8.16091 14.6442 8.25112 14.5913 8.36682C13.7821 10.2007 12.1937 13.0306 9.22403 16.0979C8.29324 17.0678 7.66464 18.2874 7.41486 19.6083C6.75486 17.7549 6.25396 14.5649 8.48469 11.0311C9.33751 9.67353 9.87026 8.13971 10.0426 6.54578C10.1586 5.46818 10.4919 3.99769 11.4192 3.11223C12.3289 2.24371 13.7949 2.2584 14.7566 3.14569C15.1959 3.53378 15.4819 4.06616 15.563 4.64668C15.2088 4.43855 14.8671 4.20998 14.5395 3.96211C14.487 3.92109 14.4266 3.89136 14.362 3.87476C14.2975 3.85817 14.2303 3.85508 14.1645 3.86568C14.0987 3.87628 14.0358 3.90035 13.9798 3.93638C13.9238 3.97241 13.8758 4.01962 13.8388 4.07505C13.6286 4.41479 13.5173 4.80638 13.5173 5.20588C13.5173 5.60537 13.6286 5.99696 13.8388 6.3367C14.0756 6.70788 14.4107 7.00602 14.807 7.19788C15.4522 7.51863 17.0609 8.36795 18.1849 9.37341C18.3762 10.1594 18.7904 10.8733 19.3777 11.4295C19.4304 11.6654 19.5217 11.8909 19.6478 12.0971C19.7772 12.3097 19.9539 12.4896 20.1641 12.6227L19.6163 14.2306C19.5012 14.1778 19.3845 14.1288 19.2662 14.0836C19.2026 14.06 19.1348 14.0501 19.0672 14.0544C18.9995 14.0587 18.9335 14.0772 18.8734 14.1086C18.8134 14.1401 18.7606 14.1838 18.7185 14.237C18.6765 14.2901 18.646 14.3515 18.6292 14.4172L18.2825 15.7725C17.4028 16.2487 16.574 16.8136 15.8091 17.4582C15.6568 17.2736 15.5139 17.0815 15.381 16.8824C15.2551 16.6918 15.0854 16.534 14.886 16.4224C14.6867 16.3107 14.4635 16.2485 14.2351 16.2408C14.0045 16.2319 13.775 16.2776 13.5654 16.374C13.3557 16.4704 13.1717 16.6149 13.0283 16.7958C10.8162 19.6025 9.16672 22.9156 8.56008 24.2099C8.43828 24.4653 8.38306 24.7473 8.39958 25.0297C8.41609 25.3121 8.5038 25.5857 8.65453 25.8251C8.97721 26.3365 9.36598 26.803 9.81076 27.2126C9.49107 27.8738 9.22815 28.5609 9.02483 29.2666C8.62338 29.1052 8.21042 28.974 7.7894 28.8743C7.71858 28.8591 7.64526 28.86 7.57485 28.877C7.50444 28.894 7.43873 28.9265 7.38258 28.9723C7.32643 29.018 7.28127 29.0758 7.25042 29.1413C7.21958 29.2068 7.20384 29.2784 7.20436 29.3509C7.24121 34.4857 9.72719 38.5273 10.2694 39.3486L10.2412 39.7015C8.18261 39.5128 6.13614 39.2095 4.11133 38.7929C3.93061 38.7563 3.74429 38.7575 3.56402 38.7962C3.38376 38.8349 3.21343 38.9105 3.06369 39.0181C2.91395 39.1256 2.78802 39.263 2.69379 39.4215C2.59956 39.5799 2.53904 39.7562 2.51603 39.9391L2.44714 40.4836C2.40809 40.7922 2.47748 41.1047 2.64344 41.3677C2.80939 41.6307 3.06159 41.8279 3.35688 41.9255C5.18907 42.5259 8.01161 42.9278 10.0899 43.1612C10.2034 43.5674 10.4407 43.9282 10.7688 44.1933C11.4646 44.7545 12.6464 45.3915 14.4227 45.3915H14.4395C14.5156 45.7059 14.6951 45.9857 14.9492 46.1859C15.2032 46.3862 15.5172 46.4953 15.8407 46.4959H16.3207C16.7032 46.4955 17.07 46.3434 17.3405 46.0729C17.611 45.8024 17.7632 45.4356 17.7637 45.0531V43.9585C24.8742 43.8276 31.8322 41.874 37.9718 38.2847C42.6692 35.5268 45.1615 32.8244 45.2653 32.7107C45.2994 32.6733 45.3274 32.6308 45.3484 32.5848C46.1204 30.8873 46.0585 27.3785 46.0556 27.23C46.0535 27.1302 46.0206 27.0335 45.9614 26.9532C45.9023 26.8729 45.8197 26.8128 45.7251 26.7812ZM14.3441 35.3955C14.5234 34.625 14.7727 33.8724 15.0889 33.1472C15.1345 33.0434 15.2094 32.955 15.3043 32.8929C15.3992 32.8307 15.5101 32.7975 15.6236 32.7973H21.8031C21.8906 32.797 21.977 32.8167 22.0557 32.855C22.1343 32.8932 22.2032 32.949 22.257 33.0179C22.312 33.0878 22.3503 33.1693 22.3689 33.2563C22.3875 33.3432 22.386 33.4333 22.3645 33.5195C22.1915 34.2348 22.062 34.9599 21.9768 35.6908C17.3655 36.3227 14.9139 35.5995 14.3441 35.3955ZM25.2683 29.9037C25.1228 30.7645 24.7086 31.5571 24.0851 32.168C23.8776 32.3606 23.6041 32.466 23.3211 32.4625H23.0469C23.037 32.4484 23.0287 32.4343 23.0187 32.4213C22.8746 32.2366 22.6902 32.0874 22.4796 31.985C22.269 31.8825 22.0378 31.8296 21.8036 31.8303H16.26C16.2387 31.3981 16.0884 30.9821 15.8284 30.636C15.7719 30.5608 15.7087 30.4768 15.6419 30.3847C15.6051 30.3321 15.5581 30.2874 15.5038 30.2531C15.4495 30.2188 15.3889 30.1957 15.3255 30.1851C15.2622 30.1745 15.1973 30.1767 15.1348 30.1914C15.0723 30.2061 15.0133 30.2331 14.9614 30.2708C14.9094 30.3086 14.8655 30.3563 14.8321 30.4112C14.7988 30.4661 14.7767 30.5271 14.7672 30.5906C14.7577 30.6541 14.7609 30.7189 14.7767 30.7811C14.7925 30.8434 14.8205 30.9019 14.8591 30.9532C14.9297 31.0509 14.9965 31.1403 15.0567 31.2203C15.1975 31.4076 15.2798 31.6323 15.2935 31.8662C15.0544 31.9184 14.831 32.0264 14.6415 32.1813C14.4521 32.3362 14.3019 32.5336 14.2032 32.7576C13.9613 33.3109 13.7568 33.8797 13.5909 34.4603C13.5344 34.0986 13.4887 33.7672 13.4524 33.4872C13.3907 33.0125 13.228 32.5566 12.9751 32.1501C13.4284 31.1102 13.9954 30.1236 14.6658 29.2084C14.7024 29.2108 14.7391 29.2131 14.7754 29.2131C15.0741 29.2129 15.3675 29.1343 15.6263 28.985C15.8851 28.8358 16.1002 28.6212 16.25 28.3628L19.9698 21.8935C20.076 21.7093 20.1404 21.504 20.1585 21.2922C20.1765 21.0803 20.1476 20.8671 20.074 20.6677C19.9996 20.4653 19.8816 20.2819 19.7283 20.1303C19.5751 19.9788 19.3903 19.8628 19.1871 19.7907C18.1812 19.4388 17.2578 18.885 16.4737 18.1632C17.1611 17.5888 17.9031 17.0832 18.6892 16.6536C20.0914 17.5294 21.371 18.5875 22.4945 19.8003C22.6962 20.7014 23.9041 25.9815 25.1271 28.7692C25.2872 29.1244 25.3364 29.5196 25.2683 29.9031V29.9037ZM12.1234 19.7463C12.7419 20.9253 14.4433 23.3784 17.9204 23.5176L16.8584 25.3645C12.1149 25.6972 11.0511 21.9158 11.007 21.7494C10.9985 21.7174 10.9868 21.6863 10.9721 21.6566C11.3379 21.009 11.7218 20.3718 12.1234 19.7458V19.7463ZM26.7202 19.6417C25.7938 20.4785 24.9182 21.3697 24.098 22.3107C23.874 21.4402 23.6622 20.5667 23.4627 19.6903L24.2876 18.6456C24.3522 18.5637 24.3887 18.4631 24.3915 18.3588C24.3943 18.2544 24.3633 18.152 24.3031 18.0668C24.0918 17.7687 23.8653 17.4817 23.6245 17.207C23.7277 16.9935 23.8539 16.7639 23.9548 16.5858C24.1851 16.6697 24.4282 16.7127 24.6733 16.7129H24.8612C25.6112 17.4107 26.2634 18.2067 26.7999 19.0794C26.8545 19.1676 26.8764 19.2721 26.8619 19.3748C26.8473 19.4774 26.7971 19.5717 26.7202 19.6412V19.6417ZM26.1995 15.434C26.151 15.5279 26.0776 15.6066 25.9873 15.6616C25.8971 15.7167 25.7934 15.7458 25.6878 15.746H24.6727C24.44 15.7466 24.2128 15.6755 24.022 15.5423C23.4213 15.1298 22.9082 14.6024 22.5123 13.9906C22.3832 13.7784 22.3055 13.539 22.2854 13.2915L22.1973 12.3104C22.1908 12.2387 22.1685 12.1694 22.1318 12.1074C22.0951 12.0455 22.0451 11.9925 21.9854 11.9523C21.9256 11.9122 21.8577 11.8858 21.7864 11.8752C21.7152 11.8646 21.6426 11.8701 21.5737 11.8911C21.566 11.8934 20.7991 12.1214 20.4713 11.59C20.207 11.1617 20.2691 10.6772 20.3681 10.3461C20.3993 10.2383 20.4567 10.1398 20.5352 10.0595C20.6137 9.97925 20.7109 9.91965 20.818 9.88602C20.9184 9.85269 21.0255 9.8447 21.1297 9.86278C21.2339 9.88086 21.332 9.92444 21.4153 9.98964C21.6632 10.1852 21.8414 10.4554 21.9236 10.7602C21.9524 10.8592 22.0121 10.9464 22.094 11.0091C22.1759 11.0718 22.2757 11.1066 22.3789 11.1086C22.4817 11.1095 22.5823 11.0781 22.6663 11.0187C22.7503 10.9594 22.8135 10.8751 22.847 10.7778C23.0242 10.2225 23.2372 9.67928 23.4846 9.15148C23.6129 8.88331 23.8134 8.65618 24.0636 8.49555C24.3138 8.33492 24.6037 8.24713 24.901 8.24202C26.1614 8.22 27.1498 8.30018 27.742 8.46875C27.7125 9.4276 27.6202 10.3835 27.4657 11.3303L26.9341 11.4058C26.8129 11.423 26.7028 11.4854 26.6258 11.5806C26.5489 11.6758 26.5109 11.7965 26.5194 11.9186C26.528 12.0407 26.5825 12.155 26.6719 12.2385C26.7614 12.322 26.8792 12.3685 27.0015 12.3686C27.0243 12.3686 27.2734 12.3349 27.2734 12.3349C27.0518 13.41 26.6908 14.4517 26.1995 15.4334V15.434ZM27.684 7.46145C27.4675 7.416 27.2258 7.37873 26.9588 7.34964C26.9494 6.35499 26.6521 5.38436 26.1028 4.55505C27.1948 5.37882 27.5613 6.67383 27.684 7.46089V7.46145ZM24.7128 4.35769C25.2142 4.89148 25.9539 5.90752 25.989 7.2823C25.7294 7.27345 25.4542 7.26983 25.1634 7.27143C24.9118 5.79543 23.9685 5.13967 23.9263 5.11143C23.8204 5.04196 23.6914 5.0168 23.5671 5.04137C23.4428 5.06594 23.3332 5.13828 23.2616 5.24284C23.1901 5.3474 23.1625 5.47584 23.1846 5.60057C23.2067 5.72531 23.2769 5.83638 23.3801 5.90992C23.4083 5.92941 24.0099 6.36804 24.2002 7.37985C23.808 7.49555 23.4494 7.70374 23.1545 7.98691C22.9019 7.32581 22.5042 6.7298 21.9907 6.24276C21.4772 5.75572 20.861 5.39006 20.1875 5.1727C21.2463 3.98145 22.7588 3.82574 23.6417 3.86456C24.0494 3.88275 24.4338 4.05975 24.7128 4.35769ZM14.6603 5.82592C14.5248 5.61397 14.4638 5.36293 14.4868 5.11242C15.5689 5.83044 17.1409 6.62498 18.1981 7.13364C18.1328 7.43218 18.091 7.73536 18.073 8.04042C17.1767 7.3938 16.2285 6.82244 15.238 6.33218C15.0023 6.21992 14.8023 6.04454 14.6602 5.8255L14.6603 5.82592ZM19.1941 7.12277C19.2904 6.73903 19.4306 6.36765 19.6118 6.01595C20.0959 6.1272 21.8784 6.68555 22.4547 8.95665C22.4608 8.97948 22.4685 9.00184 22.4778 9.02357C22.4109 9.17384 22.3474 9.3256 22.2874 9.47872C22.2013 9.38679 22.1082 9.30182 22.0087 9.22461C21.8348 9.09055 21.6352 8.99358 21.4224 8.93971C21.3319 8.59454 21.1707 8.27195 20.9489 7.99245C20.727 7.71295 20.4495 7.48265 20.1339 7.31618C20.0762 7.28947 20.0139 7.27437 19.9504 7.27174C19.887 7.26911 19.8236 7.27901 19.764 7.30087C19.7043 7.32273 19.6496 7.35612 19.6028 7.39914C19.5561 7.44216 19.5183 7.49397 19.4916 7.5516C19.4649 7.60923 19.4498 7.67155 19.4471 7.73502C19.4445 7.79849 19.4544 7.86185 19.4763 7.92149C19.4981 7.98113 19.5315 8.03589 19.5745 8.08262C19.6176 8.12936 19.6694 8.16716 19.727 8.19388C20.0462 8.37478 20.2937 8.6598 20.4279 9.00127C20.2063 9.08767 20.0059 9.2209 19.8404 9.39187C19.675 9.56284 19.5484 9.76752 19.4694 9.9919C19.0863 9.32484 18.8691 8.39138 19.1939 7.12235L19.1941 7.12277ZM21.0915 12.9027C21.1554 12.9061 21.2185 12.9071 21.2795 12.9055L21.3219 13.3779C21.3557 13.7766 21.4824 14.1619 21.6918 14.5029C22.0774 15.1069 22.5634 15.6407 23.1288 16.0811C23.065 16.1927 22.9907 16.3259 22.9156 16.467C22.1828 15.772 21.3672 15.1699 20.4874 14.674L21.0915 12.9027ZM19.4247 15.212C20.9345 15.949 22.2588 17.0166 23.2993 18.3356L22.9102 18.8281C21.8175 17.6961 20.5908 16.7014 19.2574 15.8661L19.4247 15.212ZM13.7883 17.3951C13.8342 17.3363 13.893 17.2889 13.9601 17.2564C14.0273 17.2239 14.1009 17.2072 14.1755 17.2076H14.1963C14.2717 17.2099 14.3456 17.2302 14.4116 17.2669C14.4776 17.3036 14.5338 17.3556 14.5756 17.4185C15.6096 18.9492 17.1141 20.1014 18.8614 20.7006C18.9312 20.7252 18.9947 20.7648 19.0474 20.8167C19.1002 20.8686 19.1408 20.9315 19.1665 21.0008C19.1915 21.0674 19.2013 21.1387 19.1953 21.2095C19.1892 21.2803 19.1674 21.3489 19.1315 21.4103L18.4749 22.5522C14.1786 22.7012 12.8078 18.9642 12.7513 18.8047C13.0819 18.3239 13.4277 17.8538 13.7883 17.3951ZM9.47208 25.3081C9.40942 25.2056 9.37332 25.0891 9.36706 24.9691C9.3608 24.8491 9.38457 24.7294 9.43622 24.6209C9.73216 23.9915 10.0434 23.3695 10.3695 22.7552C10.9646 24.0056 12.5746 26.3541 16.2765 26.3541H16.2891L15.4117 27.8802C15.3418 28.0004 15.2392 28.0982 15.1159 28.1624C14.9926 28.2265 14.8536 28.2544 14.7151 28.2426C13.3793 28.1297 10.9218 27.5984 9.47208 25.3081ZM10.5892 27.8321C11.4968 28.4388 12.5175 28.8561 13.5902 29.0591C13.0953 29.7779 12.6581 30.5348 12.2829 31.3228C11.5841 30.6521 10.7863 30.0928 9.91749 29.6647C10.0916 29.0367 10.3163 28.4239 10.5892 27.8321ZM11.8748 32.289C12.2133 32.6547 12.4295 33.1167 12.4933 33.6109C12.6478 34.8045 12.9724 36.875 13.5229 38.5568C12.8235 38.4421 11.8307 38.3678 10.9605 38.6308C10.3285 37.6156 8.40422 34.2042 8.19076 29.9952C9.04657 30.2801 10.6446 30.9528 11.8748 32.289ZM3.407 40.6055L3.47575 40.0611C3.4821 40.0101 3.4989 39.9611 3.52509 39.9169C3.55129 39.8728 3.58632 39.8345 3.62799 39.8045C3.66965 39.7746 3.71706 39.7535 3.76724 39.7427C3.81742 39.7319 3.8693 39.7316 3.91961 39.7417C5.98191 40.1659 8.06628 40.4746 10.163 40.6664L10.0405 42.1824C8.02474 41.9516 5.36752 41.567 3.65801 41.0065C3.57615 40.9792 3.50635 40.9242 3.46055 40.851C3.41476 40.7779 3.39583 40.691 3.407 40.6055ZM10.9838 42.5224L11.223 39.5613C12.1688 39.2636 13.4065 39.5016 13.9117 39.6226L14.1504 40.2902C14.3143 40.7477 14.398 41.2301 14.3977 41.7161V44.4248C12.9154 44.4186 11.9444 43.8995 11.3766 43.4414C11.2411 43.3318 11.1345 43.1908 11.0661 43.0306C10.9976 42.8705 10.9694 42.696 10.9838 42.5224ZM16.7956 45.0541C16.7955 45.1801 16.7453 45.301 16.6562 45.3901C16.567 45.4792 16.4462 45.5293 16.3201 45.5294H15.8401C15.7141 45.5293 15.5932 45.4792 15.5041 45.3901C15.4149 45.301 15.3648 45.1801 15.3646 45.0541V39.1388C15.3648 39.0127 15.4149 38.8919 15.5041 38.8028C15.5932 38.7137 15.7141 38.6635 15.8401 38.6634H16.3201C16.4462 38.6635 16.567 38.7137 16.6562 38.8028C16.7453 38.8919 16.7955 39.0127 16.7956 39.1388V45.0541ZM44.4981 32.1147C44.1169 32.5145 41.6674 34.9992 37.4483 37.4706C31.4651 40.9603 24.6884 42.8607 17.7631 42.9911V41.1349C21.395 41.0311 35.4109 39.8795 45.0635 28.62C45.0148 29.7176 44.8772 31.2186 44.4981 32.114V32.1147Z" fill="black"/>
<path d="M25.2573 11.3908L24.8154 11.3012C24.69 11.2765 24.5598 11.3024 24.4535 11.3733C24.3471 11.4442 24.2731 11.5544 24.2477 11.6797C24.2223 11.8049 24.2475 11.9352 24.3178 12.042C24.3881 12.1488 24.4978 12.2233 24.623 12.2495L25.065 12.3391C25.1902 12.3633 25.3199 12.337 25.4259 12.2661C25.5318 12.1951 25.6055 12.0852 25.6308 11.9602C25.6562 11.8352 25.6311 11.7053 25.5612 11.5987C25.4912 11.4921 25.382 11.4174 25.2573 11.3908ZM16.117 33.7653C16.0145 33.7653 15.9144 33.7957 15.8293 33.8526C15.7441 33.9095 15.6777 33.9904 15.6385 34.085C15.5993 34.1796 15.5891 34.2837 15.6091 34.3842C15.6291 34.4846 15.6784 34.5769 15.7508 34.6493C15.8232 34.7217 15.9155 34.7711 16.0159 34.791C16.1164 34.811 16.2205 34.8008 16.3151 34.7616C16.4097 34.7224 16.4906 34.656 16.5475 34.5709C16.6044 34.4857 16.6348 34.3856 16.6348 34.2832C16.6348 34.2152 16.6214 34.1478 16.5954 34.085C16.5693 34.0222 16.5312 33.9651 16.4831 33.917C16.435 33.8689 16.3779 33.8308 16.3151 33.8047C16.2523 33.7787 16.185 33.7653 16.117 33.7653ZM20.3397 33.8479C20.2373 33.8479 20.1371 33.8783 20.052 33.9352C19.9668 33.9921 19.9005 34.073 19.8613 34.1676C19.8221 34.2622 19.8118 34.3663 19.8318 34.4668C19.8518 34.5672 19.9011 34.6595 19.9735 34.7319C20.0459 34.8043 20.1382 34.8537 20.2387 34.8736C20.3391 34.8936 20.4432 34.8834 20.5379 34.8442C20.6325 34.805 20.7133 34.7386 20.7702 34.6534C20.8272 34.5683 20.8575 34.4682 20.8575 34.3658C20.8575 34.2284 20.803 34.0967 20.7059 33.9996C20.6087 33.9025 20.477 33.8479 20.3397 33.8479Z" fill="black"/>
<path d="M20.116 39.0504C20.402 39.0504 20.6338 38.8185 20.6338 38.5325C20.6338 38.2466 20.402 38.0147 20.116 38.0147C19.83 38.0147 19.5981 38.2466 19.5981 38.5325C19.5981 38.8185 19.83 39.0504 20.116 39.0504Z" fill="black"/>
<path d="M14.281 19.5709C14.567 19.5709 14.7989 19.339 14.7989 19.0531C14.7989 18.7671 14.567 18.5352 14.281 18.5352C13.995 18.5352 13.7632 18.7671 13.7632 19.0531C13.7632 19.339 13.995 19.5709 14.281 19.5709Z" fill="black"/>
<path d="M10.5847 25.7254C10.8707 25.7254 11.1026 25.4936 11.1026 25.2076C11.1026 24.9216 10.8707 24.6898 10.5847 24.6898C10.2987 24.6898 10.0669 24.9216 10.0669 25.2076C10.0669 25.4936 10.2987 25.7254 10.5847 25.7254Z" fill="black"/>
<path d="M14.0393 27.6371C14.3253 27.6371 14.5572 27.4053 14.5572 27.1193C14.5572 26.8333 14.3253 26.6014 14.0393 26.6014C13.7533 26.6014 13.5215 26.8333 13.5215 27.1193C13.5215 27.4053 13.7533 27.6371 14.0393 27.6371Z" fill="black"/>
<path d="M17.2237 21.7474C17.3261 21.7474 17.4263 21.717 17.5114 21.6601C17.5966 21.6032 17.663 21.5224 17.7021 21.4277C17.7413 21.3331 17.7516 21.229 17.7316 21.1285C17.7116 21.0281 17.6623 20.9358 17.5899 20.8634C17.5175 20.791 17.4252 20.7417 17.3248 20.7217C17.2243 20.7017 17.1202 20.712 17.0256 20.7512C16.9309 20.7903 16.8501 20.8567 16.7932 20.9419C16.7363 21.027 16.7059 21.1271 16.7059 21.2296C16.7059 21.3669 16.7604 21.4986 16.8576 21.5957C16.9547 21.6928 17.0864 21.7474 17.2237 21.7474ZM12.2947 22.5823C12.3971 22.5823 12.4972 22.5519 12.5824 22.495C12.6675 22.4381 12.7339 22.3573 12.7731 22.2627C12.8123 22.168 12.8226 22.0639 12.8026 21.9635C12.7826 21.863 12.7333 21.7707 12.6609 21.6983C12.5884 21.6259 12.4962 21.5766 12.3957 21.5566C12.2953 21.5366 12.1911 21.5469 12.0965 21.5861C12.0019 21.6253 11.921 21.6916 11.8641 21.7768C11.8072 21.8619 11.7769 21.9621 11.7769 22.0645C11.7769 22.1325 11.7903 22.1998 11.8163 22.2627C11.8423 22.3255 11.8804 22.3826 11.9285 22.4306C11.9766 22.4787 12.0337 22.5169 12.0965 22.5429C12.1594 22.5689 12.2267 22.5823 12.2947 22.5823Z" fill="black"/>
<path d="M15.4568 24.6898C15.7428 24.6898 15.9746 24.4579 15.9746 24.1719C15.9746 23.886 15.7428 23.6541 15.4568 23.6541C15.1708 23.6541 14.939 23.886 14.939 24.1719C14.939 24.4579 15.1708 24.6898 15.4568 24.6898Z" fill="black"/>
</svg>
