<svg width="49" height="48" viewBox="0 0 49 48" fill="none" xmlns="http://www.w3.org/2000/svg">
<path d="M19.0943 32.549L18.4287 33.1089C18.2806 33.2334 18.1587 33.3861 18.0703 33.5582C17.9818 33.7303 17.9285 33.9182 17.9135 34.1111C17.8984 34.304 17.9219 34.498 17.9826 34.6817C18.0433 34.8654 18.14 35.0352 18.267 35.1812L18.4234 35.3613C18.6493 35.6187 18.9582 35.7887 19.2964 35.8419C19.6346 35.8951 19.9808 35.828 20.2747 35.6524C20.3117 35.7195 20.3542 35.7834 20.4017 35.8434L22.1791 38.0711C22.4002 38.3495 22.7219 38.5298 23.0748 38.5728C23.0924 38.9499 23.2317 39.3112 23.4718 39.6026L24.5062 40.859C24.6552 41.0412 24.8396 41.1914 25.0483 41.3004C25.257 41.4093 25.4856 41.4749 25.7203 41.493C25.769 41.497 25.8175 41.499 25.8658 41.499C26.0987 41.4988 26.3292 41.4518 26.5435 41.3608C26.8106 41.6714 27.0718 41.9709 27.3226 42.2529C27.6395 42.6064 28.0824 42.8216 28.5561 42.8521C29.0299 42.8826 29.4967 42.726 29.8563 42.4161C29.9123 42.3674 29.9582 42.3082 29.9913 42.2419C30.0244 42.1755 30.0442 42.1033 30.0494 42.0293C30.0546 41.9553 30.0452 41.881 30.0217 41.8107C29.9982 41.7404 29.9611 41.6753 29.9124 41.6193C29.8638 41.5633 29.8046 41.5175 29.7383 41.4843C29.6719 41.4512 29.5997 41.4315 29.5257 41.4263C29.4517 41.4211 29.3774 41.4305 29.3071 41.454C29.2367 41.4775 29.1717 41.5146 29.1157 41.5632C28.981 41.6794 28.8061 41.7381 28.6285 41.7266C28.451 41.7152 28.285 41.6346 28.1663 41.5021C27.9293 41.2354 27.6945 40.9668 27.4618 40.6964L29.0122 39.4076C29.7642 40.3721 30.5814 41.284 31.458 42.1368C31.5595 42.2325 31.6928 42.2872 31.8323 42.2905C31.9717 42.2937 32.1074 42.2452 32.2133 42.1543C32.3827 42.0086 32.55 41.8618 32.7153 41.714C32.6772 42.1015 32.6504 42.49 32.635 42.8791L32.4255 46.5565C32.4169 46.706 32.4682 46.8528 32.5679 46.9645C32.6676 47.0763 32.8076 47.1439 32.9571 47.1524C32.9681 47.1524 32.9789 47.1532 32.9897 47.1532C33.1338 47.1531 33.2725 47.0979 33.3772 46.9989C33.4819 46.8999 33.5448 46.7646 33.553 46.6207L33.7631 42.9329C33.7933 42.1369 33.8742 41.3436 34.0051 40.5579C34.0079 40.5412 34.0069 40.525 34.0083 40.5086C35.2868 39.2651 36.4191 38.0116 37.3912 36.8738H43.4194C44.5712 38.085 44.9461 43.3985 44.908 46.5819C44.9063 46.7314 44.9639 46.8754 45.0683 46.9825C45.1726 47.0895 45.3152 47.1508 45.4647 47.153H45.4716C45.6201 47.153 45.7627 47.0944 45.8685 46.99C45.9742 46.8856 46.0345 46.7437 46.0363 46.5952C46.0374 46.504 46.0608 44.3363 45.844 41.9476C45.5616 38.8418 45.0219 36.909 44.1969 36.0586V34.0162L45.4044 32.3321C45.8569 31.6995 46.0778 30.9304 46.0298 30.154L45.5567 22.6255C45.5075 21.841 45.1763 21.1007 44.6242 20.5412L44.4516 20.3661C44.385 20.0779 44.2595 19.8066 44.0829 19.5693C43.9063 19.332 43.6825 19.1338 43.4255 18.9873C43.331 18.933 43.2326 18.8858 43.1311 18.8461V17.2605C43.1321 17.0219 43.0714 16.7871 42.9549 16.5789C42.8384 16.3706 42.67 16.196 42.4662 16.072C42.3668 16.0111 42.2603 15.9627 42.149 15.9281L42.1248 14.8104C42.4304 14.5987 42.7219 14.3673 42.9973 14.1177C43.7611 13.4193 44.3158 12.5222 44.5992 11.5268C44.8827 10.5314 44.8838 9.47679 44.6025 8.48076C44.3834 7.68156 44.0765 6.76646 43.2023 6.0209C43.0273 5.87209 42.8222 5.76289 42.6011 5.70079C42.3799 5.6387 42.148 5.62519 41.9211 5.66119C41.8711 5.66895 41.8223 5.68025 41.7736 5.69253C41.6795 5.58853 41.5807 5.48886 41.4771 5.39352C41.7236 5.11922 41.9239 4.80667 42.0701 4.4681C42.5684 4.46034 43.2576 4.55281 43.4838 4.91987C43.6207 5.13565 43.695 5.3852 43.6984 5.64072C43.6982 5.71487 43.7127 5.78834 43.7409 5.85692C43.7691 5.92549 43.8106 5.98784 43.8629 6.0404C43.9152 6.09295 43.9774 6.13469 44.0458 6.16322C44.1143 6.19175 44.1877 6.20653 44.2618 6.20669H44.2631C44.4127 6.20669 44.5561 6.14737 44.662 6.04174C44.7678 5.93612 44.8275 5.79281 44.8278 5.64326C44.8251 5.17822 44.6932 4.72309 44.4466 4.32876C43.841 3.34293 42.4515 3.3106 41.8507 3.34617C40.0003 1.79549 37.6102 1.97479 37.3233 2.0026C36.4597 2.03422 35.7973 2.33408 35.354 2.89385C34.8043 3.58801 34.7705 4.49592 34.8057 5.00923C33.6995 5.73403 32.8928 6.8344 32.5343 8.10735C32.4694 8.34094 32.4157 8.57749 32.3734 8.8162C32.3705 8.83187 32.3684 8.84768 32.367 8.86349L32.2117 10.5476C32.1539 10.785 32.0528 11.0097 31.9135 11.2104C31.7084 11.5063 31.596 11.8566 31.5907 12.2167C31.5854 12.5767 31.6873 12.9302 31.8836 13.2321L32.704 14.523C32.8466 14.7475 32.9627 14.9879 33.0499 15.2392L33.3993 16.246C33.4752 16.4649 33.5952 16.6658 33.7519 16.8364C33.9087 17.007 34.0987 17.1435 34.3104 17.2377C34.522 17.3318 34.7508 17.3815 34.9824 17.3836C35.214 17.3857 35.4436 17.3403 35.657 17.2501L37.0857 16.6461L37.3326 19.1503C36.6612 20.0265 36.1235 20.9976 35.7373 22.0317C34.3538 23.6987 30.8427 27.7093 26.6245 30.8677C26.5629 30.9113 26.5107 30.9667 26.4709 31.0308C26.4311 31.095 26.4045 31.1664 26.3928 31.2409C26.381 31.3155 26.3844 31.3916 26.4026 31.4648C26.4207 31.5381 26.4534 31.6069 26.4987 31.6673C26.5439 31.7277 26.6008 31.7784 26.666 31.8164C26.7312 31.8545 26.8033 31.8791 26.8781 31.8888C26.953 31.8984 27.029 31.893 27.1017 31.8728C27.1744 31.8527 27.2423 31.8181 27.3015 31.7712C30.5114 29.3678 33.3156 26.4887 35.1215 24.4717C35.0797 24.7716 35.0497 25.073 35.0314 25.3752L34.9246 27.1814C34.6632 27.659 34.3245 28.09 33.9222 28.4568C31.11 31.0262 27.0942 34.2441 26.6533 34.5963L24.6002 32.0561L24.9202 31.7879C25.071 31.6618 25.1947 31.5065 25.2839 31.3314C25.3731 31.1562 25.4259 30.9648 25.4392 30.7688C25.4525 30.5727 25.426 30.3759 25.3613 30.1903C25.2966 30.0047 25.195 29.8342 25.0627 29.6889L24.892 29.5012C24.6389 29.222 24.2872 29.052 23.9111 29.027C23.5351 29.002 23.164 29.124 22.8761 29.3673L22.1844 29.949C20.2932 27.5321 11.2679 15.6599 4.77519 1.18081C4.73852 1.09905 4.68291 1.02719 4.61297 0.971171C4.54302 0.915152 4.46075 0.876583 4.37296 0.858651C4.28516 0.840719 4.19435 0.843939 4.10804 0.868044C4.02174 0.89215 3.94241 0.936449 3.87661 0.997281C3.5467 1.32737 3.27106 1.70755 3.0599 2.12373C2.66972 2.87621 2.46318 3.71037 2.45717 4.55798C2.45115 5.40558 2.64584 6.24258 3.02531 7.00053C4.71435 10.4215 10.8116 22.262 19.0943 32.549ZM21.2842 35.1388C21.2455 35.0908 21.2272 35.0295 21.2332 34.9681C21.2392 34.9067 21.269 34.8501 21.3163 34.8105L21.8255 34.3789C21.9672 34.2578 22.1474 34.1913 22.3337 34.1914C22.3626 34.1914 22.3915 34.193 22.4203 34.1961C22.5268 34.2071 22.63 34.2398 22.7234 34.2923C22.8168 34.3448 22.8984 34.4158 22.9632 34.5011L24.0202 35.8806C24.1428 36.0406 24.1996 36.2415 24.179 36.4421C24.1584 36.6427 24.062 36.8278 23.9094 36.9596L23.6563 37.1778L23.6551 37.1788L23.401 37.3982C23.3769 37.419 23.3488 37.4348 23.3184 37.4445C23.2881 37.4542 23.2561 37.4576 23.2243 37.4547C23.1926 37.4517 23.1618 37.4424 23.1337 37.4273C23.1057 37.4121 23.081 37.3915 23.0611 37.3666L21.2842 35.1388ZM26.2943 40.1966L26.2868 40.2028L26.2755 40.2126C26.2124 40.2679 26.1389 40.3099 26.0593 40.3363C25.9796 40.3626 25.8955 40.3727 25.8119 40.3659C25.7283 40.3591 25.6469 40.3356 25.5725 40.2967C25.4982 40.2579 25.4324 40.2045 25.3791 40.1397L24.3447 38.8833C24.2431 38.76 24.1925 38.6026 24.2032 38.4433C24.2139 38.2839 24.2851 38.1347 24.4023 38.0262L24.6487 37.8134L26.7743 35.9797C27.2315 36.8575 27.7522 37.7008 28.332 38.5029L26.2943 40.1966ZM39.2543 34.6228L39.4359 34.3994H43.0678V35.7441H38.3384C38.6672 35.3445 38.9736 34.9674 39.2543 34.6228ZM44.9029 30.2249C44.9348 30.7414 44.7879 31.2531 44.4867 31.6739L43.3432 33.2699H40.3644C41.1751 32.2873 41.7968 31.163 42.198 29.9538L43.7417 25.3104C43.7433 25.3059 43.7447 25.3014 43.7461 25.2963C44.0376 24.362 44.2547 23.4061 44.3955 22.4376C44.4122 22.5229 44.4236 22.6091 44.4297 22.6958L44.9029 30.2249ZM41.2464 18.9928C39.2783 20.1304 37.452 22.7294 36.2136 24.8212C36.3046 24.0534 36.4819 23.2983 36.7421 22.5702C36.7632 22.5292 36.7792 22.4858 36.7896 22.4409C37.155 21.4596 37.6717 20.5416 38.321 19.7202C38.3475 19.6926 38.3712 19.6624 38.3916 19.63C39.1815 18.6551 40.1492 17.8388 41.2433 17.2244C41.3667 17.1551 41.4915 17.0884 41.6176 17.0243C41.6241 17.021 41.6304 17.019 41.6368 17.0163C41.6759 17.0134 41.7145 17.0064 41.7521 16.9954C41.7955 16.9984 41.8376 17.0118 41.8747 17.0345C41.9138 17.0577 41.946 17.0908 41.9682 17.1304C41.9904 17.1701 42.0017 17.2149 42.0009 17.2604V18.7231C41.735 18.7662 41.4792 18.8576 41.2462 18.9928H41.2464ZM43.5135 8.77907C43.7393 9.57422 43.7395 10.4165 43.5142 11.2118C43.2889 12.0071 42.8468 12.7241 42.2375 13.2826C41.711 13.7539 41.1245 14.1534 40.4931 14.4707C40.4495 14.4132 40.4063 14.3552 40.3637 14.297C40.3132 14.2315 40.2901 14.149 40.2993 14.0668L40.3017 14.0547C40.3375 13.8971 40.42 13.7539 40.5386 13.644C40.7252 13.4611 40.8812 13.2493 41.0004 13.0168C41.1179 12.7863 41.1873 12.5344 41.2044 12.2763C41.2255 11.9996 41.2027 11.7213 41.1367 11.4518C41.0698 11.1931 40.9382 10.9556 40.7543 10.7617C40.5703 10.5678 40.3401 10.4239 40.0853 10.3434C39.8252 10.2582 39.5477 10.2404 39.2788 10.2919C39.01 10.3434 38.7586 10.4623 38.5484 10.6377C38.5354 10.6485 38.5226 10.6595 38.5097 10.6707C38.4995 10.5122 38.5306 10.3538 38.6001 10.2111C38.6695 10.0683 38.775 9.94607 38.906 9.85639C40.4731 8.77625 41.3213 7.70754 41.7578 7.00123C41.7947 6.94158 41.8441 6.89062 41.9026 6.85187C41.9611 6.81312 42.0273 6.7875 42.0966 6.77676C42.1625 6.76573 42.2301 6.76924 42.2945 6.78707C42.359 6.8049 42.4187 6.8366 42.4696 6.87996C43.1001 7.41799 43.323 8.08533 43.5132 8.77907H43.5135ZM36.2392 3.59521C36.4731 3.29973 36.8463 3.14782 37.3793 3.13102C37.3935 3.13102 37.4094 3.12947 37.4237 3.12792C37.4448 3.12566 39.4566 2.92533 40.9954 4.10952C40.8851 4.33633 40.7379 4.54324 40.5598 4.7218C40.1484 4.48715 39.7049 4.3141 39.2433 4.2082C39.182 4.19436 39.1197 4.18114 39.0562 4.16853C38.0127 3.96235 36.9323 4.05284 35.9376 4.4297C35.9578 4.12874 36.0623 3.83953 36.2392 3.59521ZM35.2167 16.2099C35.1457 16.2399 35.0693 16.255 34.9923 16.2543C34.9152 16.2536 34.8392 16.237 34.7688 16.2057C34.6984 16.1744 34.6352 16.129 34.583 16.0722C34.5309 16.0155 34.491 15.9487 34.4657 15.8759L34.1311 14.9116L34.5829 14.9698C34.607 14.9729 34.6312 14.9744 34.6555 14.9745C34.7991 14.9745 34.9373 14.9198 35.042 14.8215C35.1466 14.7232 35.21 14.5888 35.2191 14.4455C35.2281 14.3022 35.1823 14.1608 35.0908 14.0501C34.9994 13.9394 34.8692 13.8677 34.7268 13.8496L33.5149 13.6941L32.8373 12.6266C32.7624 12.5128 32.7224 12.3795 32.7224 12.2433C32.7224 12.1071 32.7624 11.9739 32.8373 11.8601C33.0769 11.5198 33.2438 11.1337 33.3274 10.7259C33.3298 10.7118 33.3318 10.6977 33.3331 10.6823L33.4892 8.99182C33.5255 8.7922 33.5703 8.59653 33.6221 8.41088C34.2386 6.19836 36.5303 4.82133 38.8383 5.27676C38.8908 5.28721 38.9426 5.29808 38.9935 5.30966C39.695 5.47273 40.3349 5.83388 40.837 6.35013C40.8238 6.36961 40.8088 6.38796 40.7968 6.40815C40.4175 7.02241 39.6705 7.95785 38.2654 8.92674C37.8943 9.18117 37.6179 9.55119 37.4791 9.97915C37.3403 10.4071 37.347 10.869 37.4981 11.2927C37.5953 11.5614 37.7005 11.8272 37.8136 12.0897C37.8571 12.1909 37.9292 12.2773 38.0212 12.338C38.1131 12.3988 38.2208 12.4313 38.331 12.4316H38.3324C38.4423 12.4316 38.5498 12.3996 38.6418 12.3394C38.7338 12.2792 38.8062 12.1935 38.8501 12.0928C38.9429 11.8669 39.0872 11.666 39.2717 11.506C39.3357 11.4529 39.4122 11.417 39.4939 11.4017C39.5756 11.3863 39.6599 11.3921 39.7388 11.4184C39.8121 11.4408 39.8785 11.4816 39.9318 11.5368C39.985 11.592 40.0233 11.6598 40.0431 11.7339C40.079 11.8873 40.0905 12.0454 40.0774 12.2025C40.0707 12.3063 40.043 12.4076 39.9959 12.5003C39.932 12.6252 39.8484 12.7389 39.7484 12.8372C39.4613 13.1104 39.2662 13.466 39.1901 13.8549C39.1566 14.0479 39.1625 14.2458 39.2076 14.4364C39.2527 14.6271 39.336 14.8066 39.4524 14.9642C39.5926 15.1558 39.7378 15.3436 39.8879 15.5276C39.9636 15.6202 40.0668 15.6863 40.1825 15.7165C40.2982 15.7467 40.4205 15.7394 40.5318 15.6956C40.5511 15.6881 40.7321 15.6157 41.0095 15.4758L41.0223 16.0631C40.9113 16.1205 40.8 16.179 40.6908 16.2404C39.8375 16.72 39.0516 17.3106 38.3537 17.9969L38.1751 16.1859L38.4607 16.0652C38.5296 16.0367 38.592 15.9948 38.6446 15.942C38.6972 15.8892 38.7388 15.8266 38.767 15.7576C38.7952 15.6887 38.8095 15.6149 38.8091 15.5404C38.8087 15.4659 38.7935 15.3922 38.7645 15.3236C38.7355 15.255 38.6932 15.1928 38.6401 15.1406C38.5869 15.0884 38.524 15.0473 38.4548 15.0195C38.3857 14.9918 38.3118 14.978 38.2373 14.9789C38.1628 14.9798 38.0892 14.9955 38.0208 15.025L37.3525 15.3074L35.2167 16.2099ZM28.5523 34.514C29.0729 35.5221 30.2015 37.4777 31.7736 38.9301C31.8836 39.0318 32.0295 39.0855 32.1792 39.0796C32.3288 39.0737 32.47 39.0086 32.5716 38.8986C32.6733 38.7886 32.7271 38.6427 32.7211 38.493C32.7152 38.3434 32.6501 38.2022 32.5401 38.1006C30.988 36.6666 29.8699 34.6223 29.4483 33.7806C30.9703 32.5289 33.031 30.8003 34.6834 29.2903C35.2286 28.7934 35.6783 28.201 36.0105 27.5424C36.913 25.7522 39.2851 21.4305 41.8112 19.9701C41.9694 19.8766 42.1497 19.8268 42.3335 19.8256C42.5173 19.8244 42.6982 19.872 42.8577 19.9634C43.0171 20.0549 43.1495 20.187 43.2413 20.3463C43.3331 20.5055 43.3811 20.6863 43.3803 20.8701C43.3816 22.0254 43.1416 23.4016 42.667 24.9604L41.1253 29.5971C40.7555 30.7136 40.1749 31.7488 39.415 32.6465C39.1073 33.0105 38.7688 33.4272 38.3768 33.9096C36.7956 35.8563 34.6552 38.4906 31.8685 40.9543C31.0309 40.0977 28.935 37.8168 27.6624 35.2331C27.8776 35.061 28.1828 34.8141 28.5523 34.514ZM25.7952 35.3328L25.2334 35.8176C25.1674 35.5919 25.0602 35.3803 24.9173 35.1935L23.8603 33.814C23.6777 33.5754 23.4412 33.3833 23.1702 33.2534L23.7349 32.7813L25.7952 35.3328ZM23.6036 30.2322C23.6684 30.1775 23.7519 30.15 23.8365 30.1556C23.9211 30.1612 24.0003 30.1995 24.0572 30.2623L24.2279 30.4498C24.2577 30.4825 24.2806 30.5209 24.2952 30.5627C24.3098 30.6044 24.3158 30.6487 24.3128 30.6929C24.3098 30.737 24.2979 30.7801 24.2778 30.8195C24.2578 30.859 24.2299 30.8939 24.196 30.9223L19.734 34.656C19.6679 34.7108 19.5831 34.7376 19.4975 34.7309C19.412 34.7241 19.3325 34.6842 19.2759 34.6197L19.1193 34.4396C19.0908 34.4068 19.0691 34.3686 19.0555 34.3273C19.0419 34.286 19.0366 34.2424 19.04 34.1991C19.0433 34.1557 19.0553 34.1135 19.0751 34.0748C19.095 34.0361 19.1223 34.0017 19.1556 33.9737L20.2453 33.0572L20.4528 32.8826L23.6036 30.2322ZM4.05816 2.65201C4.08442 2.60217 4.11096 2.55446 4.13736 2.509C10.6661 16.7492 19.4797 28.3268 21.3201 30.6768L19.9586 31.8219C11.7562 21.629 5.71303 9.89323 4.03811 6.50048C3.73756 5.90292 3.5827 5.24272 3.58618 4.57384C3.58967 3.90496 3.7514 3.24641 4.05816 2.65201Z" fill="black"/>
<path d="M34.9063 10.2696L34.4655 10.4273C34.3957 10.4524 34.3315 10.4909 34.2766 10.5407C34.2216 10.5906 34.1771 10.6508 34.1454 10.7178C34.1137 10.7849 34.0956 10.8575 34.092 10.9316C34.0884 11.0057 34.0994 11.0798 34.1244 11.1496C34.1495 11.2194 34.188 11.2836 34.2378 11.3385C34.2877 11.3935 34.3479 11.438 34.4149 11.4697C34.482 11.5014 34.5546 11.5195 34.6287 11.5231C34.7028 11.5267 34.7769 11.5157 34.8467 11.4907L35.2873 11.333C35.3571 11.308 35.4213 11.2694 35.4763 11.2196C35.5312 11.1697 35.5758 11.1096 35.6074 11.0425C35.6391 10.9754 35.6573 10.9028 35.6609 10.8287C35.6645 10.7546 35.6534 10.6805 35.6284 10.6107C35.6034 10.5409 35.5648 10.4767 35.515 10.4218C35.4651 10.3668 35.405 10.3223 35.3379 10.2906C35.2708 10.2589 35.1982 10.2408 35.1241 10.2372C35.05 10.2336 34.976 10.2446 34.9061 10.2696H34.9063Z" fill="black"/>
</svg>
