<svg width="130" height="48" viewBox="0 0 130 48" fill="none" xmlns="http://www.w3.org/2000/svg">
<g clip-path="url(#clip0_1_7)">
<path d="M66.7277 15.8987L72.8768 15.5012C73.017 16.5066 73.2742 17.2547 73.6951 17.7925C74.3731 18.6342 75.3083 19.055 76.5475 19.055C77.4593 19.055 78.1841 18.8446 78.6751 18.4004C79.1427 18.0497 79.4233 17.4885 79.4233 16.904C79.4233 16.3429 79.1661 15.8051 78.7219 15.4544C78.2543 15.0336 77.1554 14.6127 75.4252 14.2387C72.5962 13.6074 70.5621 12.7657 69.3697 11.6902C68.1773 10.6848 67.4993 9.21187 67.546 7.64538C67.546 6.56988 67.8734 5.49438 68.4812 4.60593C69.1827 3.60057 70.1413 2.80563 71.2869 2.36141C72.5261 1.82366 74.2562 1.54309 76.4306 1.54309C79.096 1.54309 81.1301 2.03408 82.5329 3.03944C83.9357 4.02142 84.7774 5.61128 85.0346 7.78566L78.9557 8.13637C78.792 7.20115 78.4647 6.52312 77.9269 6.07889C77.3892 5.63466 76.6878 5.42424 75.7759 5.42424C75.0278 5.42424 74.4666 5.5879 74.0925 5.89185C73.7418 6.17241 73.508 6.59326 73.5314 7.06087C73.5314 7.41158 73.7185 7.7389 73.999 7.94933C74.303 8.22989 75.0278 8.48708 76.1734 8.72088C79.0024 9.32877 81.0131 9.93666 82.2523 10.5679C83.4915 11.1992 84.3799 11.9708 84.9177 12.8826C85.4788 13.8178 85.7594 14.8933 85.736 15.9922C85.736 17.3015 85.3619 18.6108 84.6137 19.7097C83.8422 20.8553 82.7667 21.7438 81.5041 22.2815C80.1715 22.866 78.4881 23.17 76.4773 23.17C72.9235 23.17 70.4686 22.4919 69.0891 21.1125C67.7097 19.7331 66.8914 18.0029 66.7277 15.8987ZM1.47297 22.8193V1.91718H12.2513C14.2387 1.91718 15.7818 2.08084 16.8339 2.43155C17.8626 2.75887 18.7745 3.4369 19.3824 4.34874C20.0604 5.3541 20.3877 6.52312 20.3643 7.7389C20.4345 9.79638 19.3824 11.7603 17.5821 12.7891C16.8807 13.1865 16.1091 13.4671 15.3142 13.6074C15.8987 13.7711 16.4832 14.0516 16.9976 14.3789C17.395 14.7063 17.7224 15.0804 18.0263 15.4778C18.377 15.8753 18.681 16.3195 18.9381 16.7871L22.0711 22.8427H14.7297L11.2694 16.413C10.8251 15.5947 10.451 15.057 10.1003 14.7998C9.63273 14.4725 9.0716 14.3088 8.51047 14.3088H7.94934V22.7959H1.47297V22.8193ZM7.94934 10.3809H10.6849C11.2694 10.3341 11.8305 10.2406 12.3916 10.1003C12.8125 10.0302 13.1866 9.79638 13.4437 9.44567C14.075 8.60398 13.9815 7.41158 13.2099 6.68678C12.7891 6.33608 11.9708 6.14903 10.8018 6.14903H7.94934V10.3809ZM0 40.7287L6.14905 40.3312C6.28933 41.3366 6.54652 42.0847 6.96736 42.6225C7.62202 43.4642 8.58061 43.9084 9.81978 43.9084C10.7316 43.9084 11.4564 43.698 11.9474 43.2538C12.415 42.8797 12.6956 42.3419 12.6956 41.7574C12.6956 41.1963 12.4384 40.6585 11.9942 40.3078C11.5265 39.887 10.4277 39.4661 8.67413 39.092C5.8451 38.4608 3.81101 37.6191 2.61861 36.5436C1.42621 35.5382 0.748173 34.0653 0.794934 32.4988C0.794934 31.4233 1.12226 30.3478 1.73015 29.4593C2.43156 28.454 3.39016 27.659 4.5358 27.2148C5.77496 26.677 7.50511 26.3965 9.67949 26.3965C12.3449 26.3965 14.379 26.8875 15.7818 27.8928C17.1846 28.8982 18.0029 30.4647 18.2601 32.639L12.1812 32.9898C12.0175 32.0545 11.6902 31.3765 11.1525 30.9323C10.6381 30.4881 9.9133 30.2776 9.00146 30.301C8.25329 30.301 7.69216 30.4647 7.31807 30.792C6.94398 31.0726 6.73356 31.4934 6.75694 31.961C6.75694 32.3117 6.94398 32.639 7.22455 32.8495C7.52849 33.13 8.25329 33.3872 9.39893 33.621C12.228 34.2289 14.2387 34.8368 15.4778 35.4681C16.717 36.0993 17.6055 36.8709 18.1432 37.7827C18.7043 38.718 18.9849 39.7935 18.9849 40.869C18.9849 42.1783 18.5874 43.4642 17.8626 44.5631C17.0911 45.7087 16.0156 46.5972 14.753 47.1349C13.4204 47.7194 11.737 48.0234 9.72625 48.0234C6.17243 48.0234 3.71749 47.3453 2.33804 45.9659C0.958597 44.5631 0.187043 42.8329 0 40.7287Z" fill="black"/>
<path d="M31.096 39.0921L36.754 40.7988C36.4501 42.225 35.8188 43.5811 34.9538 44.7735C34.1588 45.8256 33.1067 46.6439 31.9143 47.1817C30.6985 47.7194 29.1554 48 27.285 48C25.0171 48 23.1466 47.6727 21.7204 47.018C20.2709 46.3634 19.0317 45.1943 17.9796 43.5343C16.9275 41.8743 16.4131 39.7467 16.4131 37.1515C16.4131 33.6912 17.3249 31.0258 19.172 29.1788C21.019 27.3317 23.6143 26.3965 26.981 26.3965C29.623 26.3965 31.6805 26.9342 33.2002 27.9864C34.6966 29.0619 35.8188 30.6985 36.567 32.8962L30.8622 34.1588C30.7219 33.6678 30.5115 33.1768 30.2309 32.756C29.8802 32.265 29.436 31.8909 28.8982 31.6103C28.3605 31.3298 27.7526 31.2129 27.1447 31.2129C25.6717 31.2129 24.5495 31.7974 23.7779 32.9898C23.1934 33.8548 22.8895 35.2343 22.8895 37.1047C22.8895 39.4194 23.2402 41.0092 23.9416 41.8743C24.643 42.7394 25.625 43.1602 26.9109 43.1602C28.1501 43.1602 29.0853 42.8095 29.7165 42.1315C30.3478 41.4067 30.8154 40.4014 31.096 39.0921ZM44.3059 26.7472H50.7589V34.0653H57.8198V26.7472H64.3196V47.6493H57.8198V39.1856H50.7589V47.6493H44.3059V26.7472Z" fill="black"/>
<path d="M63.4312 37.1982C63.4312 33.7847 64.3898 31.1193 66.2836 29.2255C68.1774 27.3317 70.8427 26.3731 74.2329 26.3731C77.7166 26.3731 80.382 27.3083 82.2758 29.1788C84.1696 31.0492 85.1048 33.6678 85.1048 37.0346C85.1048 39.4895 84.684 41.4769 83.8656 43.0433C83.0707 44.5865 81.8315 45.849 80.3118 46.6907C78.7453 47.5558 76.8048 48 74.4901 48C72.1287 48 70.1881 47.6259 68.645 46.8777C67.0551 46.0828 65.7458 44.8436 64.8807 43.3239C63.9221 41.6873 63.4312 39.6532 63.4312 37.1982ZM69.8841 37.2216C69.8841 39.3259 70.2816 40.8456 71.0532 41.7808C71.8247 42.6926 72.9002 43.1602 74.2563 43.1602C75.6357 43.1602 76.7112 42.716 77.4828 41.8042C78.2543 40.8923 78.6284 39.2791 78.6284 36.9411C78.6284 34.9771 78.231 33.5275 77.436 32.6391C76.6411 31.7272 75.5656 31.283 74.2095 31.283C73.0171 31.2362 71.8715 31.7506 71.0766 32.6624C70.2816 33.5743 69.8841 35.094 69.8841 37.2216ZM91.7215 37.1982C91.7215 33.7847 92.6801 31.1193 94.5739 29.2255C96.4677 27.3317 99.1331 26.3731 102.523 26.3731C106.007 26.3731 108.696 27.3083 110.566 29.1788C112.437 31.0492 113.395 33.6678 113.395 37.0346C113.395 39.4895 112.974 41.4769 112.156 43.0433C111.361 44.5865 110.122 45.849 108.602 46.6907C107.036 47.5558 105.095 48 102.78 48C100.419 48 98.4784 47.6259 96.9353 46.8777C95.3454 46.0828 94.0361 44.8436 93.171 43.3239C92.2124 41.6873 91.7215 39.6532 91.7215 37.1982ZM98.1745 37.2216C98.1745 39.3259 98.5719 40.8456 99.3435 41.7808C100.115 42.6926 101.191 43.1602 102.547 43.1602C103.926 43.1602 105.002 42.716 105.773 41.8042C106.545 40.8923 106.919 39.2791 106.919 36.9411C106.919 34.9771 106.521 33.5275 105.726 32.6391C104.931 31.7272 103.856 31.283 102.5 31.283C101.307 31.2362 100.138 31.7506 99.3669 32.6624C98.5719 33.5743 98.1745 35.094 98.1745 37.2216Z" fill="black"/>
<path d="M112.717 26.7472H119.17V42.5056H129.247V47.6493H112.694V26.7472H112.717Z" fill="black"/>
<path d="M105.604 25.5409C112.101 20.6451 114.104 12.3458 110.079 7.004C106.053 1.66219 97.5234 1.30068 91.0267 6.19654C84.5299 11.0924 82.5265 19.3917 86.552 24.7335C90.5775 30.0753 99.1074 30.4368 105.604 25.5409Z" fill="white"/>
<mask id="mask0_1_7" style="mask-type:luminance" maskUnits="userSpaceOnUse" x="84" y="2" width="29" height="27">
<path d="M105.604 25.5409C112.101 20.6451 114.104 12.3458 110.079 7.004C106.053 1.66219 97.5234 1.30068 91.0267 6.19654C84.5299 11.0924 82.5265 19.3917 86.552 24.7335C90.5775 30.0753 99.1074 30.4368 105.604 25.5409Z" fill="white"/>
</mask>
<g mask="url(#mask0_1_7)">
<path d="M69.9834 13.2194L103.556 -12.0803L126.787 18.7475L93.2146 44.0472L69.9834 13.2194Z" fill="white"/>
<mask id="mask1_1_7" style="mask-type:luminance" maskUnits="userSpaceOnUse" x="69" y="-13" width="58" height="58">
<path d="M69.9834 13.2194L103.556 -12.0803L126.787 18.7475L93.2146 44.0472L69.9834 13.2194Z" fill="white"/>
</mask>
<g mask="url(#mask1_1_7)">
<path d="M105.604 25.5409C112.101 20.6451 114.104 12.3458 110.079 7.004C106.053 1.66219 97.5234 1.30068 91.0267 6.19654C84.5299 11.0924 82.5265 19.3917 86.552 24.7335C90.5775 30.0753 99.1074 30.4368 105.604 25.5409Z" fill="white"/>
<mask id="mask2_1_7" style="mask-type:luminance" maskUnits="userSpaceOnUse" x="84" y="2" width="29" height="27">
<path d="M105.604 25.5409C112.101 20.6451 114.104 12.3458 110.079 7.004C106.053 1.66219 97.5234 1.30068 91.0267 6.19654C84.5299 11.0924 82.5265 19.3917 86.552 24.7335C90.5775 30.0753 99.1074 30.4368 105.604 25.5409Z" fill="white"/>
</mask>
<g mask="url(#mask2_1_7)">
<path d="M79.332 15.2779L102.841 -2.43711L117.432 16.9262L93.9233 34.6412L79.332 15.2779Z" fill="white"/>
<mask id="mask3_1_7" style="mask-type:luminance" maskUnits="userSpaceOnUse" x="82" y="-2" width="33" height="36">
<path d="M82.7964 26.8158L90.9095 -1.48L114.216 5.20256L106.103 33.4984L82.7964 26.8158Z" fill="white"/>
</mask>
<g mask="url(#mask3_1_7)">
<path d="M105.604 25.5409C112.101 20.6451 114.104 12.3458 110.079 7.004C106.053 1.66219 97.5234 1.30068 91.0267 6.19654C84.5299 11.0924 82.5265 19.3917 86.552 24.7335C90.5775 30.0753 99.1074 30.4368 105.604 25.5409Z" fill="white" stroke="black" stroke-width="4" stroke-miterlimit="10"/>
</g>
<mask id="mask4_1_7" style="mask-type:luminance" maskUnits="userSpaceOnUse" x="82" y="-2" width="33" height="36">
<path d="M82.6821 26.9066L90.7958 -1.38904L114.102 5.29392L105.988 33.5896L82.6821 26.9066Z" fill="white"/>
</mask>
<g mask="url(#mask4_1_7)">
<path d="M79.332 15.2779L102.841 -2.43711L117.432 16.9262L93.9233 34.6412L79.332 15.2779Z" stroke="black" stroke-width="4" stroke-miterlimit="10"/>
</g>
<path d="M105.604 25.5409C112.101 20.6451 114.104 12.3458 110.079 7.004C106.053 1.66219 97.5234 1.30068 91.0267 6.19654C84.5299 11.0924 82.5265 19.3917 86.552 24.7335C90.5775 30.0753 99.1074 30.4368 105.604 25.5409Z" stroke="black" stroke-width="4" stroke-miterlimit="10"/>
<path d="M79.332 15.2779L102.841 -2.43711L117.432 16.9262L93.9233 34.6412L79.332 15.2779Z" fill="white"/>
<mask id="mask5_1_7" style="mask-type:luminance" maskUnits="userSpaceOnUse" x="82" y="-2" width="33" height="36">
<path d="M82.7964 26.8158L90.9095 -1.48L114.216 5.20256L106.103 33.4984L82.7964 26.8158Z" fill="white"/>
</mask>
<g mask="url(#mask5_1_7)">
<path d="M105.604 25.5409C112.101 20.6451 114.104 12.3458 110.079 7.004C106.053 1.66219 97.5234 1.30068 91.0267 6.19654C84.5299 11.0924 82.5265 19.3917 86.552 24.7335C90.5775 30.0753 99.1074 30.4368 105.604 25.5409Z" fill="white" stroke="black" stroke-width="4" stroke-miterlimit="10"/>
</g>
<mask id="mask6_1_7" style="mask-type:luminance" maskUnits="userSpaceOnUse" x="82" y="-2" width="33" height="36">
<path d="M82.6821 26.9066L90.7958 -1.38904L114.102 5.29392L105.988 33.5896L82.6821 26.9066Z" fill="white"/>
</mask>
<g mask="url(#mask6_1_7)">
<path d="M79.332 15.2779L102.841 -2.43711L117.432 16.9262L93.9233 34.6412L79.332 15.2779Z" stroke="black" stroke-width="4" stroke-miterlimit="10"/>
</g>
<path d="M69.9834 13.2194L103.556 -12.0803L126.787 18.7475L93.2146 44.0472L69.9834 13.2194Z" stroke="black" stroke-width="4" stroke-miterlimit="10"/>
</g>
<path d="M105.604 25.5409C112.101 20.6451 114.104 12.3458 110.079 7.004C106.053 1.66219 97.5234 1.30068 91.0267 6.19654C84.5299 11.0924 82.5265 19.3917 86.552 24.7335C90.5775 30.0753 99.1074 30.4368 105.604 25.5409Z" stroke="black" stroke-width="4" stroke-miterlimit="10"/>
<path d="M91.7445 14.3322L94.0826 12.6956L96.9584 16.7871C97.4494 17.4418 97.8235 18.1432 98.104 18.9148C98.2677 19.4993 98.2209 20.1305 97.9871 20.6917C97.6832 21.3931 97.1922 21.9776 96.5375 22.3984C95.766 22.9362 95.1113 23.2401 94.5502 23.3337C94.0124 23.4272 93.4513 23.3337 92.9369 23.0999C92.3758 22.8193 91.8848 22.4218 91.5107 21.9075L93.5215 20.037C93.6851 20.2942 93.8955 20.528 94.1294 20.7151C94.293 20.832 94.4801 20.9021 94.6905 20.9021C94.8541 20.9021 95.0178 20.832 95.1347 20.7384C95.3685 20.5981 95.5322 20.3176 95.5088 20.037C95.4387 19.6396 95.275 19.2421 95.0178 18.9381L91.7445 14.3322ZM98.7587 16.9274L100.886 15.244C101.12 15.5246 101.424 15.735 101.751 15.8519C102.219 15.9922 102.71 15.8987 103.107 15.5947C103.388 15.4077 103.622 15.1505 103.715 14.8232C103.856 14.4023 103.622 13.9347 103.201 13.7944C103.131 13.7711 103.061 13.7477 102.991 13.7477C102.71 13.7243 102.219 13.8412 101.494 14.1452C100.302 14.6361 99.3666 14.8232 98.6652 14.753C97.9871 14.6829 97.3558 14.3322 96.9818 13.7477C96.7012 13.3502 96.5609 12.8826 96.5375 12.415C96.5375 11.8773 96.6778 11.3395 96.9818 10.8953C97.426 10.264 97.9637 9.72625 98.6184 9.30541C99.6004 8.62737 100.465 8.30005 101.214 8.30005C101.962 8.30005 102.663 8.65075 103.318 9.37555L101.214 11.0356C100.793 10.4978 99.9978 10.3809 99.4601 10.8018L99.3899 10.8719C99.1561 11.0122 98.9925 11.2226 98.899 11.4798C98.8288 11.6668 98.8756 11.8773 98.9925 12.0409C99.086 12.1578 99.2263 12.2513 99.3899 12.2513C99.577 12.2747 99.9043 12.1812 100.372 11.9708C101.541 11.4798 102.429 11.1992 103.037 11.1057C103.552 11.0122 104.089 11.0589 104.58 11.2694C105.025 11.4564 105.399 11.7837 105.656 12.1812C105.983 12.6488 106.17 13.2099 106.194 13.7944C106.217 14.4023 106.053 14.9868 105.726 15.5012C105.305 16.1325 104.767 16.6702 104.136 17.0911C102.85 17.9795 101.798 18.3536 100.956 18.2133C100.045 18.0731 99.2964 17.6055 98.7587 16.9274Z" fill="black"/>
</g>
</g>
</g>
<defs>
<clipPath id="clip0_1_7">
<rect width="129.247" height="48" fill="white"/>
</clipPath>
</defs>
</svg>
